<?xml version="1.0" encoding="utf-8"?>
<!-- Generator: Adobe Illustrator 17.0.0, SVG Export Plug-In . SVG Version: 6.00 Build 0)  -->
<!DOCTYPE svg PUBLIC "-//W3C//DTD SVG 1.1//EN" "http://www.w3.org/Graphics/SVG/1.1/DTD/svg11.dtd">
<svg version="1.1" id="Layer_1" xmlns="http://www.w3.org/2000/svg" xmlns:xlink="http://www.w3.org/1999/xlink" x="0px" y="0px"
	 width="136.896px" height="23.25px" viewBox="0 0 136.896 23.25" enable-background="new 0 0 136.896 23.25" xml:space="preserve">
<g>
	<path fill="#FFFFFF" d="M12.4,6.866c1.074,0.548,1.612,1.276,1.612,2.186c0,0.455-0.135,0.853-0.403,1.194
		c-0.269,0.341-0.62,0.511-1.054,0.511c-0.331,0-0.6-0.046-0.807-0.139c-0.207-0.093-0.408-0.217-0.604-0.372
		c-0.196-0.155-0.388-0.284-0.573-0.388c-0.207-0.103-0.512-0.196-0.914-0.279C9.254,9.497,8.929,9.455,8.681,9.455
		c-1.551,0-2.765,0.48-3.643,1.441c-0.879,0.961-1.317,2.216-1.317,3.767c0,1.488,0.443,2.723,1.333,3.705
		c0.888,0.981,2.024,1.472,3.409,1.472c1.013,0,1.768-0.124,2.264-0.372c0.124-0.062,0.294-0.17,0.511-0.325
		c0.218-0.155,0.419-0.274,0.604-0.356c0.187-0.083,0.414-0.124,0.683-0.124c0.517,0,0.925,0.166,1.225,0.496
		c0.299,0.331,0.449,0.755,0.449,1.271c0,0.496-0.29,0.961-0.868,1.395c-0.579,0.434-1.344,0.781-2.294,1.039
		c-0.95,0.258-1.964,0.388-3.038,0.388c-1.592,0-2.991-0.372-4.2-1.116c-1.209-0.744-2.145-1.771-2.806-3.084
		C0.331,17.737,0,16.275,0,14.663c0-1.674,0.346-3.162,1.039-4.464C1.73,8.897,2.697,7.879,3.938,7.146
		c1.24-0.733,2.645-1.101,4.216-1.101C9.909,6.045,11.325,6.319,12.4,6.866z"/>
	<path fill="#FFFFFF" d="M31.713,19.111c-0.744,1.313-1.762,2.331-3.054,3.054c-1.291,0.724-2.712,1.085-4.262,1.085
		c-1.571,0-2.997-0.361-4.278-1.085c-1.281-0.723-2.294-1.741-3.038-3.054c-0.744-1.312-1.116-2.795-1.116-4.448
		s0.372-3.136,1.116-4.449c0.744-1.312,1.757-2.335,3.038-3.069c1.281-0.733,2.707-1.101,4.278-1.101
		c1.55,0,2.971,0.367,4.262,1.101c1.292,0.734,2.31,1.757,3.054,3.069c0.744,1.312,1.116,2.795,1.116,4.449
		S32.457,17.799,31.713,19.111z M28.474,11.951c-0.424-0.795-0.992-1.411-1.705-1.845s-1.504-0.651-2.371-0.651
		c-0.868,0-1.659,0.217-2.372,0.651s-1.281,1.049-1.705,1.845s-0.635,1.7-0.635,2.712s0.211,1.912,0.635,2.697
		c0.424,0.786,0.992,1.395,1.705,1.829s1.504,0.651,2.372,0.651c0.867,0,1.658-0.217,2.371-0.651s1.281-1.043,1.705-1.829
		c0.423-0.785,0.636-1.684,0.636-2.697S28.896,12.746,28.474,11.951z"/>
	<path fill="#FFFFFF" d="M47.399,6.866c1.074,0.548,1.612,1.276,1.612,2.186c0,0.455-0.135,0.853-0.403,1.194
		c-0.269,0.341-0.62,0.511-1.054,0.511c-0.331,0-0.6-0.046-0.807-0.139c-0.207-0.093-0.408-0.217-0.604-0.372
		c-0.196-0.155-0.388-0.284-0.573-0.388c-0.207-0.103-0.512-0.196-0.914-0.279c-0.403-0.083-0.729-0.124-0.977-0.124
		c-1.551,0-2.765,0.48-3.643,1.441c-0.879,0.961-1.317,2.216-1.317,3.767c0,1.488,0.443,2.723,1.333,3.705
		c0.888,0.981,2.024,1.472,3.409,1.472c1.013,0,1.768-0.124,2.264-0.372c0.124-0.062,0.294-0.17,0.511-0.325
		c0.218-0.155,0.419-0.274,0.604-0.356c0.187-0.083,0.414-0.124,0.683-0.124c0.517,0,0.925,0.166,1.225,0.496
		c0.299,0.331,0.449,0.755,0.449,1.271c0,0.496-0.29,0.961-0.868,1.395c-0.579,0.434-1.344,0.781-2.294,1.039
		c-0.95,0.258-1.964,0.388-3.038,0.388c-1.592,0-2.991-0.372-4.2-1.116c-1.209-0.744-2.145-1.771-2.806-3.084
		c-0.661-1.312-0.992-2.774-0.992-4.386c0-1.674,0.346-3.162,1.039-4.464c0.691-1.302,1.658-2.319,2.898-3.053
		c1.24-0.733,2.645-1.101,4.216-1.101C44.908,6.045,46.324,6.319,47.399,6.866z"/>
	<path fill="#FFFFFF" d="M65.534,6.897c0.352,0.362,0.527,0.812,0.527,1.349v7.874c0,2.232-0.615,3.979-1.845,5.239
		c-1.229,1.261-2.981,1.891-5.255,1.891s-4.02-0.63-5.238-1.891c-1.22-1.26-1.829-3.007-1.829-5.239V8.246
		c0-0.537,0.175-0.987,0.526-1.349c0.352-0.361,0.796-0.542,1.333-0.542s0.981,0.181,1.333,0.542
		c0.352,0.362,0.527,0.812,0.527,1.349v7.874c0,1.261,0.279,2.196,0.837,2.805c0.558,0.61,1.395,0.915,2.511,0.915
		c1.137,0,1.984-0.305,2.542-0.915c0.559-0.609,0.837-1.544,0.837-2.805V8.246c0-0.537,0.176-0.987,0.527-1.349
		c0.352-0.361,0.795-0.542,1.333-0.542C64.738,6.355,65.183,6.536,65.534,6.897z"/>
	<path fill="#FFFFFF" d="M73.578,22.397c-0.361,0.362-0.811,0.542-1.349,0.542c-0.517,0-0.95-0.181-1.302-0.542
		c-0.352-0.361-0.526-0.811-0.526-1.349V1.891c0-0.537,0.181-0.987,0.542-1.349C71.305,0.181,71.754,0,72.292,0
		c0.517,0,0.95,0.181,1.302,0.542c0.352,0.362,0.527,0.812,0.527,1.349v19.158C74.121,21.586,73.939,22.036,73.578,22.397z"/>
	<path fill="#FFFFFF" d="M87.156,19.855c0.237,0.279,0.356,0.646,0.356,1.101c0,0.558-0.305,1.028-0.914,1.41
		c-0.61,0.383-1.298,0.574-2.062,0.574c-1.282,0-2.361-0.273-3.24-0.821c-0.878-0.547-1.317-1.71-1.317-3.488v-8.556h-1.426
		c-0.496,0-0.909-0.165-1.24-0.496c-0.33-0.331-0.496-0.744-0.496-1.24c0-0.475,0.166-0.873,0.496-1.193
		c0.331-0.32,0.744-0.48,1.24-0.48h1.426V4.681c0-0.538,0.181-0.987,0.543-1.349c0.361-0.361,0.811-0.542,1.349-0.542
		c0.516,0,0.95,0.181,1.302,0.542C83.524,3.694,83.7,4.144,83.7,4.681v1.984h2.2c0.496,0,0.909,0.166,1.24,0.496
		c0.33,0.331,0.496,0.744,0.496,1.24c0,0.476-0.166,0.874-0.496,1.193c-0.331,0.321-0.744,0.48-1.24,0.48h-2.2v8.401
		c0,0.434,0.113,0.749,0.341,0.945c0.227,0.197,0.537,0.294,0.93,0.294c0.165,0,0.393-0.041,0.682-0.124
		c0.248-0.103,0.485-0.155,0.714-0.155C86.655,19.437,86.918,19.577,87.156,19.855z"/>
	<path fill="#FFFFFF" d="M104.687,6.897c0.352,0.362,0.527,0.812,0.527,1.349v7.874c0,2.232-0.615,3.979-1.845,5.239
		c-1.229,1.261-2.981,1.891-5.255,1.891s-4.02-0.63-5.238-1.891c-1.22-1.26-1.829-3.007-1.829-5.239V8.246
		c0-0.537,0.175-0.987,0.526-1.349c0.352-0.361,0.796-0.542,1.333-0.542s0.981,0.181,1.333,0.542
		c0.352,0.362,0.527,0.812,0.527,1.349v7.874c0,1.261,0.279,2.196,0.837,2.805c0.558,0.61,1.395,0.915,2.511,0.915
		c1.137,0,1.984-0.305,2.542-0.915c0.559-0.609,0.837-1.544,0.837-2.805V8.246c0-0.537,0.176-0.987,0.527-1.349
		c0.352-0.361,0.795-0.542,1.333-0.542C103.891,6.355,104.335,6.536,104.687,6.897z"/>
	<path fill="#FFFFFF" d="M119.427,6.572c0.424,0.352,0.636,0.765,0.636,1.24c0,0.641-0.166,1.121-0.496,1.441
		c-0.331,0.321-0.724,0.48-1.178,0.48c-0.311,0-0.662-0.072-1.055-0.217c-0.062-0.021-0.201-0.062-0.418-0.124
		s-0.45-0.093-0.697-0.093c-0.538,0-1.055,0.166-1.551,0.496c-0.496,0.331-0.904,0.832-1.225,1.503
		c-0.32,0.672-0.48,1.473-0.48,2.403v7.347c0,0.538-0.176,0.987-0.526,1.349c-0.352,0.362-0.796,0.542-1.333,0.542
		c-0.538,0-0.982-0.181-1.333-0.542c-0.352-0.361-0.527-0.811-0.527-1.349V8.246c0-0.537,0.176-0.987,0.527-1.349
		c0.351-0.361,0.795-0.542,1.333-0.542c0.537,0,0.981,0.181,1.333,0.542c0.351,0.362,0.526,0.812,0.526,1.349v0.403
		c0.476-0.847,1.157-1.493,2.046-1.938c0.889-0.444,1.84-0.667,2.853-0.667C118.481,6.045,119.003,6.221,119.427,6.572z"/>
	<path fill="#FFFFFF" d="M136.307,15.469c-0.372,0.31-0.806,0.465-1.302,0.465h-10.23c0.248,1.22,0.816,2.175,1.705,2.867
		c0.889,0.693,1.892,1.039,3.007,1.039c0.848,0,1.509-0.078,1.984-0.232s0.853-0.32,1.132-0.496c0.278-0.175,0.47-0.294,0.573-0.356
		c0.372-0.186,0.723-0.279,1.054-0.279c0.435,0,0.807,0.155,1.116,0.465s0.465,0.672,0.465,1.085c0,0.558-0.289,1.065-0.868,1.519
		c-0.578,0.476-1.354,0.879-2.324,1.209c-0.972,0.331-1.953,0.496-2.945,0.496c-1.736,0-3.25-0.361-4.542-1.085
		c-1.291-0.723-2.289-1.721-2.991-2.992c-0.703-1.271-1.054-2.702-1.054-4.293c0-1.777,0.372-3.337,1.116-4.681
		c0.743-1.343,1.725-2.371,2.944-3.084c1.22-0.713,2.521-1.069,3.906-1.069c1.364,0,2.65,0.372,3.859,1.116
		c1.209,0.744,2.175,1.747,2.898,3.007c0.724,1.261,1.085,2.625,1.085,4.092C136.875,14.756,136.679,15.159,136.307,15.469z
		 M124.806,12.834h8.122v-0.217c-0.083-0.868-0.507-1.612-1.271-2.232c-0.765-0.62-1.633-0.93-2.604-0.93
		C126.655,9.455,125.239,10.582,124.806,12.834z"/>
</g>
</svg>
